<svg width="16" height="17" viewBox="0 0 16 17" fill="none" xmlns="http://www.w3.org/2000/svg">
<g id="icon-park-solid:check-one">
<g id="Mask group">
<mask id="mask0_41_11771" style="mask-type:luminance" maskUnits="userSpaceOnUse" x="0" y="1" width="16" height="15">
<g id="Group">
<g id="Group_2">
<path id="Vector" d="M7.99968 15.1667C8.87533 15.1678 9.74256 14.9959 10.5515 14.6608C11.3605 14.3257 12.0953 13.834 12.7137 13.214C13.3337 12.5957 13.8253 11.8609 14.1605 11.0519C14.4956 10.2429 14.6675 9.37569 14.6663 8.50005C14.6675 7.6244 14.4955 6.75717 14.1604 5.94819C13.8253 5.1392 13.3337 4.40441 12.7137 3.78605C12.0953 3.16606 11.3605 2.67438 10.5515 2.33927C9.74256 2.00417 8.87533 1.83225 7.99968 1.83338C7.12404 1.83226 6.25681 2.0042 5.44782 2.3393C4.63884 2.6744 3.90405 3.16607 3.28568 3.78605C2.6657 4.40441 2.17404 5.1392 1.83893 5.94819C1.50383 6.75717 1.3319 7.6244 1.33301 8.50005C1.33188 9.37569 1.5038 10.2429 1.83891 11.0519C2.17401 11.8609 2.66569 12.5957 3.28568 13.214C3.90405 13.834 4.63884 14.3257 5.44782 14.6608C6.25681 14.9959 7.12404 15.1678 7.99968 15.1667Z" fill="white" stroke="white" stroke-width="1.33333" stroke-linejoin="round"/>
<path id="Vector_2" d="M5.33301 8.49988L7.33301 10.4999L11.333 6.49988" stroke="black" stroke-width="1.33333" stroke-linecap="round" stroke-linejoin="round"/>
</g>
</g>
</mask>
<g mask="url(#mask0_41_11771)">
<path id="Vector_3" d="M-0.00019455 0.499878H15.9998V16.4999H-0.00019455V0.499878Z" fill="#2E7D32"/>
</g>
</g>
</g>
</svg>
